<?xml version="1.0" encoding="utf-8"?>
<!-- Generator: Adobe Illustrator 19.1.0, SVG Export Plug-In . SVG Version: 6.00 Build 0)  -->
<svg version="1.1" id="Layer_1" xmlns="http://www.w3.org/2000/svg" xmlns:xlink="http://www.w3.org/1999/xlink" x="0px" y="0px"
	 width="30px" height="30px" viewBox="0 0 30 30" style="enable-background:new 0 0 30 30;" xml:space="preserve">
<style type="text/css">
	.st0{clip-path:url(#SVGID_2_);}
	.st1{opacity:0.8;clip-path:url(#SVGID_4_);}
	.st2{clip-path:url(#SVGID_6_);fill:#1D1D1B;}
</style>
<g>
	<defs>
		<rect id="SVGID_1_" width="30" height="30"/>
	</defs>
	<clipPath id="SVGID_2_">
		<use xlink:href="#SVGID_1_"  style="overflow:visible;"/>
	</clipPath>
	<g class="st0">
		<defs>
			<rect id="SVGID_3_" width="30" height="30"/>
		</defs>
		<clipPath id="SVGID_4_">
			<use xlink:href="#SVGID_3_"  style="overflow:visible;"/>
		</clipPath>
		<g class="st1">
			<g>
				<defs>
					<rect id="SVGID_5_" x="-17" y="-13" width="64" height="44"/>
				</defs>
				<clipPath id="SVGID_6_">
					<use xlink:href="#SVGID_5_"  style="overflow:visible;"/>
				</clipPath>
				<path class="st2" d="M27.8,25.2c0,1.4-1.2,2.5-2.6,2.5H4.9c-1.4,0-2.6-1.1-2.6-2.5V11.4c0-1,0.8-1.7,1.8-1.7H26
					c1,0,1.8,0.8,1.8,1.7V25.2z M26.8,2v1.5c0,1.5-1.3,2.8-2.8,2.8h-0.1C22.3,6.2,21,5,21,3.5V1.8h-3.1v1.7c0,1.5-1.3,2.8-2.9,2.8
					h-0.1c-1.6,0-2.8-1.2-2.8-2.8V1.8H8.9v1.7c0,1.5-1.3,2.8-2.8,2.8H5.9C4.4,6.2,3.1,5,3.1,3.5V2C1.3,2.6,0,4.2,0,6.1v19.5
					C0,28.1,2,30,4.5,30h20.9c2.5,0,4.5-1.9,4.5-4.4V6.1C30,4.2,28.7,2.5,26.8,2"/>
				<path class="st2" d="M5.9,4.9h0.1c0.4,0,0.8-0.2,1.1-0.5c0.2-0.2,0.4-0.6,0.4-0.9V1.5c0-0.4-0.2-0.7-0.4-1c0,0,0,0,0,0
					c0,0,0,0,0,0c-0.3-0.3-0.6-0.4-1-0.4H5.9c-0.4,0-0.8,0.1-1,0.4c0,0,0,0,0,0c0,0,0,0,0,0c-0.3,0.3-0.4,0.6-0.4,1v1.9
					c0,0.4,0.1,0.7,0.4,0.9C5.1,4.7,5.5,4.9,5.9,4.9"/>
				<path class="st2" d="M14.2,4.5L14.2,4.5C14.2,4.5,14.2,4.5,14.2,4.5c0.3,0.2,0.5,0.2,0.8,0.2h0.1c0.3,0,0.5,0,0.7-0.2
					c0,0,0,0,0,0s0,0,0,0c0.5-0.2,0.8-0.7,0.8-1.2V1.4c0-0.5-0.2-0.9-0.6-1.1c0,0,0,0,0,0l0,0C15.8,0.1,15.5,0,15.1,0H15
					c-0.4,0-0.7,0.1-1,0.4c0,0,0,0,0,0c0,0,0,0,0,0c-0.3,0.3-0.5,0.6-0.5,1v1.9C13.5,3.8,13.8,4.3,14.2,4.5"/>
				<path class="st2" d="M24,4.8h0.1c0.4,0,0.9-0.2,1.1-0.5c0.2-0.2,0.4-0.6,0.4-0.9V1.4c0-0.5-0.3-1-0.8-1.3c0,0,0,0,0,0
					c0,0-0.1,0-0.1-0.1c0,0,0,0,0,0c0,0,0,0,0,0c0,0,0,0,0,0c0,0,0,0,0,0c0,0,0,0,0,0C24.4,0,24.3,0,24.1,0H24c-0.1,0-0.1,0-0.2,0
					c-0.7,0.1-1.2,0.7-1.2,1.4v1.9C22.5,4.1,23.1,4.8,24,4.8"/>
			</g>
		</g>
	</g>
</g>
</svg>
