<?xml version="1.0" encoding="utf-8"?>
<!-- Generator: Adobe Illustrator 19.1.0, SVG Export Plug-In . SVG Version: 6.00 Build 0)  -->
<svg version="1.1" id="Layer_1" xmlns="http://www.w3.org/2000/svg" xmlns:xlink="http://www.w3.org/1999/xlink" x="0px" y="0px"
	 width="171.1px" height="132.9px" viewBox="64 -45 171.1 132.9" style="enable-background:new 64 -45 171.1 132.9;"
	 xml:space="preserve">
<style type="text/css">
	.st0{clip-path:url(#SVGID_2_);fill:#099E00;}
	.st1{clip-path:url(#SVGID_4_);fill:#099E00;}
	.st2{clip-path:url(#SVGID_6_);fill:#099E00;}
	.st3{clip-path:url(#SVGID_8_);fill:#099E00;}
	.st4{clip-path:url(#SVGID_10_);fill:#099E00;}
	.st5{clip-path:url(#SVGID_12_);fill:#099E00;}
	.st6{clip-path:url(#SVGID_14_);fill:#099E00;}
	.st7{clip-path:url(#SVGID_16_);fill:#099E00;}
	.st8{clip-path:url(#SVGID_18_);fill:#099E00;}
	.st9{clip-path:url(#SVGID_20_);fill:#099E00;}
	.st10{clip-path:url(#SVGID_22_);fill:#099E00;}
	.st11{clip-path:url(#SVGID_24_);fill:#099E00;}
	.st12{clip-path:url(#SVGID_26_);fill:#099E00;}
	.st13{clip-path:url(#SVGID_28_);fill:#099E00;}
	.st14{clip-path:url(#SVGID_30_);fill:#099E00;}
	.st15{clip-path:url(#SVGID_32_);fill:#099E00;}
	.st16{clip-path:url(#SVGID_34_);fill:#099E00;}
	.st17{clip-path:url(#SVGID_36_);fill:#099E00;}
	.st18{clip-path:url(#SVGID_38_);fill:#099E00;}
	.st19{clip-path:url(#SVGID_40_);fill:#099E00;}
	.st20{clip-path:url(#SVGID_42_);}
	.st21{clip-path:url(#SVGID_44_);fill:#099E00;}
	.st22{clip-path:url(#SVGID_46_);fill:#099E00;}
	.st23{clip-path:url(#SVGID_48_);fill:#099E00;}
	.st24{clip-path:url(#SVGID_50_);fill:#099E00;}
	.st25{clip-path:url(#SVGID_52_);fill:#099E00;}
	.st26{clip-path:url(#SVGID_54_);}
	.st27{clip-path:url(#SVGID_56_);}
	.st28{opacity:0.31;}
	.st29{clip-path:url(#SVGID_58_);fill:#1D1D1B;}
	.st30{clip-path:url(#SVGID_60_);}
	.st31{clip-path:url(#SVGID_62_);fill:#1D1D1B;}
	.st32{clip-path:url(#SVGID_64_);}
	.st33{clip-path:url(#SVGID_66_);fill:#1D1D1B;}
</style>
<g>
	<g>
		<defs>
			<rect id="SVGID_1_" x="64" y="-45" width="171.3" height="132.9"/>
		</defs>
		<clipPath id="SVGID_2_">
			<use xlink:href="#SVGID_1_"  style="overflow:visible;"/>
		</clipPath>
		<rect id="XMLID_55_" x="64" y="-6.9" class="st0" width="12.9" height="12.9"/>
	</g>
	<g>
		<defs>
			<rect id="SVGID_3_" x="64" y="-45" width="171.3" height="132.9"/>
		</defs>
		<clipPath id="SVGID_4_">
			<use xlink:href="#SVGID_3_"  style="overflow:visible;"/>
		</clipPath>
		<rect id="XMLID_54_" x="120.1" y="-6.9" class="st1" width="12.9" height="12.9"/>
	</g>
	<g>
		<defs>
			<rect id="SVGID_5_" x="64" y="-45" width="171.3" height="132.9"/>
		</defs>
		<clipPath id="SVGID_6_">
			<use xlink:href="#SVGID_5_"  style="overflow:visible;"/>
		</clipPath>
		<rect id="XMLID_53_" x="176.1" y="-6.9" class="st2" width="12.9" height="12.9"/>
	</g>
	<g>
		<defs>
			<rect id="SVGID_7_" x="64" y="-45" width="171.3" height="132.9"/>
		</defs>
		<clipPath id="SVGID_8_">
			<use xlink:href="#SVGID_7_"  style="overflow:visible;"/>
		</clipPath>
		<rect id="XMLID_52_" x="150.3" y="-6.9" class="st3" width="12.9" height="12.9"/>
	</g>
	<g>
		<defs>
			<rect id="SVGID_9_" x="64" y="-45" width="171.3" height="132.9"/>
		</defs>
		<clipPath id="SVGID_10_">
			<use xlink:href="#SVGID_9_"  style="overflow:visible;"/>
		</clipPath>
		<rect id="XMLID_51_" x="206.3" y="-6.9" class="st4" width="12.9" height="12.9"/>
	</g>
	<g>
		<defs>
			<rect id="SVGID_11_" x="64" y="-45" width="171.3" height="132.9"/>
		</defs>
		<clipPath id="SVGID_12_">
			<use xlink:href="#SVGID_11_"  style="overflow:visible;"/>
		</clipPath>
		<rect id="XMLID_50_" x="64" y="-19.8" class="st5" width="12.9" height="12.9"/>
	</g>
	<g>
		<defs>
			<rect id="SVGID_13_" x="64" y="-45" width="171.3" height="132.9"/>
		</defs>
		<clipPath id="SVGID_14_">
			<use xlink:href="#SVGID_13_"  style="overflow:visible;"/>
		</clipPath>
		<rect id="XMLID_49_" x="120.1" y="-19.8" class="st6" width="12.9" height="12.9"/>
	</g>
	<g>
		<defs>
			<rect id="SVGID_15_" x="64" y="-45" width="171.3" height="132.9"/>
		</defs>
		<clipPath id="SVGID_16_">
			<use xlink:href="#SVGID_15_"  style="overflow:visible;"/>
		</clipPath>
		<rect id="XMLID_48_" x="176.1" y="-19.8" class="st7" width="12.9" height="12.9"/>
	</g>
	<g>
		<defs>
			<rect id="SVGID_17_" x="64" y="-45" width="171.3" height="132.9"/>
		</defs>
		<clipPath id="SVGID_18_">
			<use xlink:href="#SVGID_17_"  style="overflow:visible;"/>
		</clipPath>
		<rect id="XMLID_47_" x="150.3" y="-19.8" class="st8" width="12.9" height="12.9"/>
	</g>
	<g>
		<defs>
			<rect id="SVGID_19_" x="64" y="-45" width="171.3" height="132.9"/>
		</defs>
		<clipPath id="SVGID_20_">
			<use xlink:href="#SVGID_19_"  style="overflow:visible;"/>
		</clipPath>
		<rect id="XMLID_46_" x="76.9" y="-32.6" class="st9" width="17.3" height="12.9"/>
	</g>
	<g>
		<defs>
			<rect id="SVGID_21_" x="64" y="-45" width="171.3" height="132.9"/>
		</defs>
		<clipPath id="SVGID_22_">
			<use xlink:href="#SVGID_21_"  style="overflow:visible;"/>
		</clipPath>
		<rect id="XMLID_45_" x="94.4" y="-32.6" class="st10" width="12.9" height="12.9"/>
	</g>
	<g>
		<defs>
			<rect id="SVGID_23_" x="64" y="-45" width="171.3" height="132.9"/>
		</defs>
		<clipPath id="SVGID_24_">
			<use xlink:href="#SVGID_23_"  style="overflow:visible;"/>
		</clipPath>
		<rect id="XMLID_44_" x="120.1" y="-32.6" class="st11" width="12.9" height="12.9"/>
	</g>
	<g>
		<defs>
			<rect id="SVGID_25_" x="64" y="-45" width="171.3" height="132.9"/>
		</defs>
		<clipPath id="SVGID_26_">
			<use xlink:href="#SVGID_25_"  style="overflow:visible;"/>
		</clipPath>
		<rect id="XMLID_43_" x="176.1" y="-32.6" class="st12" width="12.9" height="12.9"/>
	</g>
	<g>
		<defs>
			<rect id="SVGID_27_" x="64" y="-45" width="171.3" height="132.9"/>
		</defs>
		<clipPath id="SVGID_28_">
			<use xlink:href="#SVGID_27_"  style="overflow:visible;"/>
		</clipPath>
		<rect id="XMLID_42_" x="132.8" y="-32.6" class="st13" width="17.3" height="12.9"/>
	</g>
	<g>
		<defs>
			<rect id="SVGID_29_" x="64" y="-45" width="171.3" height="132.9"/>
		</defs>
		<clipPath id="SVGID_30_">
			<use xlink:href="#SVGID_29_"  style="overflow:visible;"/>
		</clipPath>
		<rect id="XMLID_41_" x="189" y="-32.6" class="st14" width="17.3" height="12.9"/>
	</g>
	<g>
		<defs>
			<rect id="SVGID_31_" x="64" y="-45" width="171.3" height="132.9"/>
		</defs>
		<clipPath id="SVGID_32_">
			<use xlink:href="#SVGID_31_"  style="overflow:visible;"/>
		</clipPath>
		<rect id="XMLID_40_" x="206.3" y="-32.6" class="st15" width="12.9" height="12.9"/>
	</g>
	<g>
		<defs>
			<rect id="SVGID_33_" x="64" y="-45" width="171.3" height="132.9"/>
		</defs>
		<clipPath id="SVGID_34_">
			<use xlink:href="#SVGID_33_"  style="overflow:visible;"/>
		</clipPath>
		<rect id="XMLID_39_" x="94.4" y="-19.8" class="st16" width="12.9" height="12.9"/>
	</g>
	<g>
		<defs>
			<rect id="SVGID_35_" x="64" y="-45" width="171.3" height="132.9"/>
		</defs>
		<clipPath id="SVGID_36_">
			<use xlink:href="#SVGID_35_"  style="overflow:visible;"/>
		</clipPath>
		<rect id="XMLID_38_" x="94.4" y="-6.9" class="st17" width="12.9" height="12.9"/>
	</g>
	<g>
		<defs>
			<rect id="SVGID_37_" x="64" y="-45" width="171.3" height="132.9"/>
		</defs>
		<clipPath id="SVGID_38_">
			<use xlink:href="#SVGID_37_"  style="overflow:visible;"/>
		</clipPath>
		<rect id="XMLID_37_" x="76.9" y="-6.9" class="st18" width="17.3" height="12.9"/>
	</g>
	<g>
		<defs>
			<rect id="SVGID_39_" x="64" y="-45" width="171.3" height="132.9"/>
		</defs>
		<clipPath id="SVGID_40_">
			<use xlink:href="#SVGID_39_"  style="overflow:visible;"/>
		</clipPath>
		<rect id="XMLID_36_" x="64" y="6" class="st19" width="12.9" height="12.9"/>
	</g>
	<g>
		<defs>
			<rect id="SVGID_41_" x="64" y="-45" width="171.3" height="132.9"/>
		</defs>
		<clipPath id="SVGID_42_">
			<use xlink:href="#SVGID_41_"  style="overflow:visible;"/>
		</clipPath>
		<rect id="XMLID_35_" x="64" y="31.6" class="st20" width="155.2" height="12.9"/>
	</g>
	<g>
		<defs>
			<rect id="SVGID_43_" x="64" y="-45" width="171.3" height="132.9"/>
		</defs>
		<clipPath id="SVGID_44_">
			<use xlink:href="#SVGID_43_"  style="overflow:visible;"/>
		</clipPath>
		<rect id="XMLID_34_" x="120.1" y="6" class="st21" width="12.9" height="12.9"/>
	</g>
	<g>
		<defs>
			<rect id="SVGID_45_" x="64" y="-45" width="171.3" height="132.9"/>
		</defs>
		<clipPath id="SVGID_46_">
			<use xlink:href="#SVGID_45_"  style="overflow:visible;"/>
		</clipPath>
		<rect id="XMLID_33_" x="176.1" y="6" class="st22" width="12.9" height="12.9"/>
	</g>
	<g>
		<defs>
			<rect id="SVGID_47_" x="64" y="-45" width="171.3" height="132.9"/>
		</defs>
		<clipPath id="SVGID_48_">
			<use xlink:href="#SVGID_47_"  style="overflow:visible;"/>
		</clipPath>
		<rect id="XMLID_32_" x="132.8" y="6" class="st23" width="17.3" height="12.9"/>
	</g>
	<g>
		<defs>
			<rect id="SVGID_49_" x="64" y="-45" width="171.3" height="132.9"/>
		</defs>
		<clipPath id="SVGID_50_">
			<use xlink:href="#SVGID_49_"  style="overflow:visible;"/>
		</clipPath>
		<rect id="XMLID_31_" x="189" y="6" class="st24" width="17.3" height="12.9"/>
	</g>
	<g>
		<defs>
			<rect id="SVGID_51_" x="64" y="-45" width="171.3" height="132.9"/>
		</defs>
		<clipPath id="SVGID_52_">
			<use xlink:href="#SVGID_51_"  style="overflow:visible;"/>
		</clipPath>
		<rect id="XMLID_30_" x="206.3" y="6" class="st25" width="12.9" height="12.9"/>
	</g>
	<g>
		<defs>
			<rect id="SVGID_53_" x="64" y="-45" width="171.3" height="132.9"/>
		</defs>
		<clipPath id="SVGID_54_">
			<use xlink:href="#SVGID_53_"  style="overflow:visible;"/>
		</clipPath>
		<g class="st26">
			<g>
				<defs>
					<rect id="SVGID_55_" x="64" y="-45" width="171.3" height="132.9"/>
				</defs>
				<clipPath id="SVGID_56_">
					<use xlink:href="#SVGID_55_"  style="overflow:visible;"/>
				</clipPath>
				<g class="st27">
					<g class="st28">
						<g>
							<defs>
								<rect id="SVGID_57_" x="101.2" y="68.6" width="82.2" height="20.1"/>
							</defs>
							<clipPath id="SVGID_58_">
								<use xlink:href="#SVGID_57_"  style="overflow:visible;"/>
							</clipPath>
							<path class="st29" d="M166.6,80.8v-5H166v11.5h0.7v-6h7v6h0.7V75.8h-0.7v5C173.7,80.8,166.6,80.8,166.6,80.8z M159.6,77.2
								c-1-1-2.4-1.5-3.8-1.5c-3.3,0-6,2.7-6,6c0,3.3,2.7,5.8,6,5.8c1.4,0,2.7-0.5,3.8-1.4v-1c-0.9,1-2.6,1.7-3.9,1.7
								s-2.7-0.7-3.8-1.5c-1-1-1.5-2.2-1.5-3.6c0-2.9,2.4-5.3,5.3-5.3c1.4,0,2.9,0.7,3.9,1.9C159.6,78.2,159.6,77.2,159.6,77.2z
								 M144,75.8h-0.7V86l-9.6-10.3v11.7h0.7v-10l9.6,10.3V75.8z M126.3,82.9c0,1,0,2.1-0.5,2.9c-0.5,0.7-1.7,1.2-2.6,1.2
								s-2.1-0.3-2.6-1.2c-0.5-0.7-0.5-1.9-0.5-2.9v-7h-0.7v7.2c0,1.2,0,2.2,0.9,3.1s2.1,1.4,3.1,1.4c1.2,0,2.4-0.5,3.1-1.4
								c0.9-1,0.9-2.1,0.9-3.1v-7.2h-0.7v7H126.3z M111,75.8h-0.7v11.5h3.6v-0.7H111V75.8z"/>
						</g>
					</g>
					<g>
						<defs>
							<rect id="SVGID_59_" x="64" y="-45" width="171.3" height="132.9"/>
						</defs>
						<clipPath id="SVGID_60_">
							<use xlink:href="#SVGID_59_"  style="overflow:visible;"/>
						</clipPath>
						<g class="st30">
							<g class="st28">
								<g>
									<defs>
										<rect id="SVGID_61_" x="57.6" y="50.1" width="169.4" height="20.1"/>
									</defs>
									<clipPath id="SVGID_62_">
										<use xlink:href="#SVGID_61_"  style="overflow:visible;"/>
									</clipPath>
									<path class="st31" d="M218.1,58.2v-0.7h-5.5V69h5.5v-0.7h-4.8V63h4.6v-0.7h-4.6v-4.1H218.1z M201.8,63.5v0.7h4.1
										c0,1.2-0.3,2.2-1.4,3.1c-1,0.7-2.2,1.2-3.4,1.2c-2.9,0-5.3-2.4-5.3-5.3c0-2.7,2.4-5.3,5.3-5.3c1.9,0,3.4,1,4.5,2.4l0.5-0.5
										c-1.2-1.7-2.9-2.7-5-2.7c-3.3,0-6,2.7-6,6c0,3.3,2.7,5.8,6,5.8c1.5,0,3.3-0.7,4.5-1.9c1-1.2,1.2-2.4,1.2-3.8h-5V63.5z
										 M182.6,68.3V58.2h1.4c1.4,0,2.6,0.3,3.8,1.2c1,1,1.7,2.4,1.7,3.8c0,1.4-0.5,2.7-1.5,3.6c-1,1-2.4,1.4-3.9,1.4h-1.4V68.3z
										 M181.9,69h2.1c1.7,0,3.1-0.3,4.3-1.5c1.2-1.2,1.7-2.6,1.7-4.3s-0.7-3.3-1.9-4.3c-1.2-1.2-2.6-1.4-4.3-1.4h-2.1V69H181.9z
										 M170.1,58c2.9,0,5.3,2.4,5.3,5.3c0,2.9-2.4,5.3-5.3,5.3c-2.9,0-5.3-2.4-5.3-5.3C164.8,60.4,167.2,58,170.1,58 M170.1,57.3
										c-3.3,0-6,2.7-6,6s2.7,6,6,6s6-2.7,6-6S173.3,57.3,170.1,57.3 M154.1,62.8v-4.6h1.2c0.7,0,1.4,0,2.1,0.5
										c0.5,0.3,0.9,1.2,0.9,1.9c0,0.7-0.2,1.2-0.7,1.7c-0.5,0.5-1.2,0.7-2.1,0.7h-1.4V62.8z M154.1,63.5h1.4
										c0.9,0,1.9-0.2,2.6-0.7c0.7-0.5,1-1.4,1-2.2s-0.3-1.7-1-2.4c-0.7-0.7-1.5-0.7-2.6-0.7h-2.1V69h0.7V63.5z M136.3,57.5h-0.7
										V69h3.6v-0.7h-2.9C136.3,68.3,136.3,57.5,136.3,57.5z M127.7,64.5h-4.5l2.2-5.5L127.7,64.5z M127.9,65.2l1.5,3.8h0.7
										l-4.8-11.8L120.5,69h0.7l1.5-3.8H127.9z M114.6,58.2h2.9v-0.7h-6.7v0.7h2.9V69h0.7V58.2H114.6z M105.5,57.5h-0.7V69h0.7
										V57.5z M94,63.5v0.7h4.1c0,1.2-0.3,2.2-1.4,3.1c-1,0.7-2.2,1.2-3.4,1.2c-2.9,0-5.3-2.4-5.3-5.1c0-2.7,2.4-5.3,5.3-5.3
										c1.9,0,3.4,1,4.5,2.4l0.5-0.5c-1.2-1.7-2.9-2.7-5-2.7c-3.3,0-6,2.7-6,6c0,3.3,2.7,5.8,6,5.8c1.5,0,3.3-0.7,4.5-1.9
										c1-1.2,1.2-2.4,1.2-3.8h-5V63.5z M81.5,57.5h-0.7V69h0.7V57.5z M67.4,68.3V58.2h1.4c1.4,0,2.6,0.3,3.8,1.2
										c1,1,1.7,2.4,1.7,3.8c0,1.4-0.5,2.7-1.5,3.6c-1,1-2.4,1.4-3.9,1.4h-1.4V68.3z M66.7,69h2.1c1.7,0,3.1-0.3,4.3-1.5
										c1.2-1.2,1.7-2.6,1.7-4.3s-0.7-3.3-1.9-4.3c-1.2-1.2-2.6-1.4-4.3-1.4h-1.9V69z"/>
								</g>
							</g>
							<g>
								<defs>
									<rect id="SVGID_63_" x="64" y="-45" width="171.3" height="132.9"/>
								</defs>
								<clipPath id="SVGID_64_">
									<use xlink:href="#SVGID_63_"  style="overflow:visible;"/>
								</clipPath>
								<g class="st32">
									<g class="st28">
										<g>
											<defs>
												<rect id="SVGID_65_" x="210.9" y="-52.2" width="33.6" height="20.1"/>
											</defs>
											<clipPath id="SVGID_66_">
												<use xlink:href="#SVGID_65_"  style="overflow:visible;"/>
											</clipPath>
											<path class="st33" d="M234.6-42.6v-2.6h-6l-1,6.2c0.7-0.3,1.4-0.5,2.2-0.5c1.2,0,2.6,0.5,2.6,2.1c0,1-0.9,1.7-1.9,1.7
												c-1.2,0-2.4-0.5-3.3-1.4l-0.5,2.7c1.2,0.7,2.4,1,3.8,1c1.2,0,2.4-0.2,3.4-1c1-0.9,1.5-1.9,1.5-3.1c0-2.4-1.7-4.3-4.1-4.1
												h-1l0.2-1.4h4.1V-42.6z M221.6-42.6v8.9h2.9v-11.5h-4.6v2.6C219.9-42.6,221.6-42.6,221.6-42.6z"/>
										</g>
									</g>
								</g>
							</g>
						</g>
					</g>
				</g>
			</g>
		</g>
	</g>
</g>
</svg>
