<?xml version="1.0" encoding="utf-8"?>
<!-- Generator: Adobe Illustrator 19.1.0, SVG Export Plug-In . SVG Version: 6.00 Build 0)  -->
<svg version="1.1" id="Layer_1" xmlns="http://www.w3.org/2000/svg" xmlns:xlink="http://www.w3.org/1999/xlink" x="0px" y="0px"
	 width="30px" height="42px" viewBox="0 0 30 42" style="enable-background:new 0 0 30 42;" xml:space="preserve">
<style type="text/css">
	.st0{clip-path:url(#SVGID_2_);}
	.st1{opacity:0.8;clip-path:url(#SVGID_4_);}
	.st2{clip-path:url(#SVGID_6_);}
	.st3{clip-path:url(#SVGID_8_);fill:#1D1D1B;}
</style>
<g>
	<defs>
		<rect id="SVGID_1_" width="30" height="41.3"/>
	</defs>
	<clipPath id="SVGID_2_">
		<use xlink:href="#SVGID_1_"  style="overflow:visible;"/>
	</clipPath>
	<g class="st0">
		<defs>
			<rect id="SVGID_3_" y="0" width="30" height="41.3"/>
		</defs>
		<clipPath id="SVGID_4_">
			<use xlink:href="#SVGID_3_"  style="overflow:visible;"/>
		</clipPath>
		<g class="st1">
			<g>
				<defs>
					<rect id="SVGID_5_" x="-9" y="-7" width="48" height="49.3"/>
				</defs>
				<clipPath id="SVGID_6_">
					<use xlink:href="#SVGID_5_"  style="overflow:visible;"/>
				</clipPath>
				<g class="st2">
					<defs>
						<rect id="SVGID_7_" y="0" width="30" height="41.3"/>
					</defs>
					<clipPath id="SVGID_8_">
						<use xlink:href="#SVGID_7_"  style="overflow:visible;"/>
					</clipPath>
					<path class="st3" d="M14.9,22.5c-4.4,0-8-3.6-8-8c0-4.4,3.6-8,8-8c4.4,0,8,3.6,8,8C22.9,18.9,19.3,22.5,14.9,22.5 M14.9,0.3
						C6.8,0.3,0.2,6.8,0.2,14.9c0,7.6,10.9,15.8,14.1,25.9c0.1,0.2,0.3,0.4,0.5,0.4c0.2,0,0.4-0.2,0.5-0.4
						c3.1-10.4,14.1-18.3,14.1-25.9C29.5,6.8,22.9,0.3,14.9,0.3"/>
				</g>
			</g>
		</g>
	</g>
</g>
</svg>
