<?xml version="1.0" encoding="utf-8"?>
<!-- Generator: Adobe Illustrator 16.0.0, SVG Export Plug-In . SVG Version: 6.00 Build 0)  -->
<!DOCTYPE svg PUBLIC "-//W3C//DTD SVG 1.1//EN" "http://www.w3.org/Graphics/SVG/1.1/DTD/svg11.dtd">
<svg version="1.1" id="Layer_1" xmlns="http://www.w3.org/2000/svg" xmlns:xlink="http://www.w3.org/1999/xlink" x="0px" y="0px"
	 width="30px" height="42px" viewBox="0 0 30 42" enable-background="new 0 0 30 42" xml:space="preserve">
<g>
	<g>
		<g>
			<g>
				<g>
					<g>
						<g opacity="0.8">
							<g>
								<g>
									<path fill="#FFFFFF" d="M14.9,22.5c-4.4,0-8-3.6-8-8s3.6-8,8-8s8,3.6,8,8S19.3,22.5,14.9,22.5 M14.9,0.3
										C6.8,0.3,0.2,6.8,0.2,14.9c0,7.6,10.9,15.8,14.1,25.9c0.1,0.2,0.3,0.4,0.5,0.4c0.2,0,0.4-0.2,0.5-0.4
										C18.4,30.4,29.4,22.5,29.4,14.9C29.5,6.8,22.9,0.3,14.9,0.3"/>
								</g>
							</g>
						</g>
					</g>
				</g>
			</g>
		</g>
	</g>
</g>
</svg>
