<?xml version="1.0" encoding="utf-8"?>
<!-- Generator: Adobe Illustrator 19.0.0, SVG Export Plug-In . SVG Version: 6.00 Build 0)  -->
<!DOCTYPE svg PUBLIC "-//W3C//DTD SVG 1.1//EN" "http://www.w3.org/Graphics/SVG/1.1/DTD/svg11.dtd">
<svg version="1.1" id="Layer_1" xmlns="http://www.w3.org/2000/svg" xmlns:xlink="http://www.w3.org/1999/xlink" x="0px" y="0px"
	 viewBox="0 0 239.7 24" enable-background="new 0 0 239.7 24" xml:space="preserve">
<g id="XMLID_2_">
	<defs>
		<rect id="XMLID_3_" x="0" y="-0.5" width="239.7" height="24"/>
	</defs>
	<clipPath id="XMLID_44_">
		<use xlink:href="#XMLID_3_"  overflow="visible"/>
	</clipPath>
	<path id="XMLID_10_" clip-path="url(#XMLID_44_)" fill="#2ADE73" d="M239.7,8.3c0-1.1-0.2-2.2-0.7-3.3c-0.6-1.4-1.6-2.6-3-3.5
		c-1.3-0.9-2.8-1.4-4.4-1.4h-4.8c-3.1,0-4.7,1.4-4.7,4.3v14c0,1.3,0.3,2.4,0.9,3.2c0.7,0.9,1.6,1.4,2.9,1.4c1.1,0,1.9-0.4,2.6-1.1
		c0.7-0.7,1-1.6,1-2.7v-3.1l3.1,5.1c0.7,1.2,1.7,1.7,3.1,1.7c1.1,0,1.9-0.3,2.7-1c0.7-0.7,1.1-1.6,1.1-2.6c0-0.8-0.2-1.6-0.7-2.4
		l-1.8-2.8C238.9,12.3,239.7,10.4,239.7,8.3 M212.2,14.1h2.7c2.2,0,3.3-0.9,3.3-2.7c0-0.9-0.3-1.5-0.9-2c-0.6-0.5-1.3-0.7-2.1-0.7
		h-2.9V7.2h3.7c1.2,0,2.2-0.3,2.9-0.9c0.8-0.6,1.2-1.6,1.2-2.8c0-1.1-0.5-2-1.4-2.7c-0.5-0.4-1.2-0.6-2-0.7c-0.2,0-0.9,0-2.1,0h-4.5
		c-1.2,0-2,0-2.4,0.1c-0.8,0.2-1.5,0.5-2,1.1c-0.5,0.5-0.8,1.1-0.9,1.8c-0.1,0.4-0.1,1.1-0.1,2.1v12.4c0,1.4,0.1,2.4,0.3,3
		c0.3,0.9,1,1.6,2,2c0.5,0.2,1.5,0.3,2.8,0.3h5.9c1.4,0,2.5-0.3,3.1-0.8c0.8-0.7,1.2-1.6,1.2-2.7c0-1.1-0.4-2-1.2-2.7
		c-0.7-0.6-1.7-0.9-3.1-0.9h-3.4V14.1z M190,18.5c0,1.3,0.2,2.3,0.7,2.9c0.7,1,1.8,1.6,3.1,1.6c1.3,0,2.4-0.6,3.1-1.7
		c0.4-0.7,0.6-1.6,0.6-2.9V7.1h1.7c1.3,0,2.3-0.3,2.9-0.8c0.8-0.8,1.2-1.7,1.2-2.7c0-0.7-0.2-1.3-0.6-1.9c-0.4-0.6-0.9-1-1.5-1.3
		c-0.5-0.2-1.7-0.3-3.6-0.3h-7.6c-2.1,0-3.5,0.1-4.1,0.4c-0.6,0.2-1,0.7-1.4,1.3c-0.4,0.6-0.5,1.2-0.5,1.9c0,1.1,0.4,1.9,1.2,2.6
		c0.7,0.6,1.6,0.9,2.7,0.9h2V18.5z M183.5,8.3c0-1.1-0.2-2.2-0.7-3.3c-0.6-1.4-1.6-2.6-3-3.5c-1.3-0.9-2.8-1.4-4.4-1.4h-4.8
		c-3.1,0-4.7,1.4-4.7,4.3v14c0,1.3,0.3,2.4,0.9,3.2c0.7,0.9,1.6,1.4,2.9,1.4c1.1,0,1.9-0.4,2.6-1.1c0.7-0.7,1-1.6,1-2.7v-3.1
		l3.1,5.1c0.7,1.2,1.7,1.7,3.1,1.7c1.1,0,1.9-0.3,2.7-1c0.7-0.7,1.1-1.6,1.1-2.6c0-0.8-0.2-1.6-0.7-2.4l-1.8-2.8
		C182.7,12.3,183.5,10.4,183.5,8.3 M157.2,19.9c0.5,1,1,1.8,1.4,2.2c0.6,0.6,1.5,0.9,2.4,0.9c1.2,0,2.1-0.4,2.9-1.4
		c0.6-0.7,0.9-1.5,0.9-2.4c0-0.6-0.1-1.2-0.4-1.8l-7.2-15.3c-0.7-1.5-1.9-2.3-3.5-2.3c-1.6,0-2.8,0.7-3.5,2.2l-7.1,15.2
		c-0.3,0.7-0.5,1.3-0.5,2c0,0.8,0.2,1.5,0.6,2.1c0.7,1.1,1.8,1.6,3.1,1.6c1.1,0,2-0.4,2.8-1.2c0.4-0.4,0.7-1,1.1-1.9H157.2z
		 M131.3,18.5c0,1.3,0.2,2.3,0.7,2.9c0.7,1,1.8,1.6,3.1,1.6c1.3,0,2.4-0.6,3.1-1.7c0.4-0.7,0.6-1.6,0.6-2.9V7.1h1.7
		c1.3,0,2.3-0.3,2.9-0.8c0.8-0.8,1.2-1.7,1.2-2.7c0-0.7-0.2-1.3-0.6-1.9c-0.4-0.6-0.9-1-1.5-1.3c-0.5-0.2-1.7-0.3-3.6-0.3h-7.6
		c-2.1,0-3.5,0.1-4.1,0.4c-0.6,0.2-1,0.7-1.4,1.3c-0.4,0.6-0.5,1.2-0.5,1.9c0,1.1,0.4,1.9,1.2,2.6c0.7,0.6,1.6,0.9,2.7,0.9h2V18.5z
		 M108.8,15.3c-0.7,0.6-1,1.5-1,2.4c0,1.4,0.7,2.7,2,3.8c1.7,1.4,3.8,2,6.3,2c2.5,0,4.6-0.6,6.2-2c1.7-1.4,2.6-3.3,2.6-5.8
		c0-2.3-0.8-4.1-2.3-5.3c-1.1-0.9-2.8-1.7-4.9-2.4c-1.5-0.5-2.3-1-2.3-1.6c0-0.6,0.3-0.9,0.9-0.9c0.4,0,0.9,0.3,1.6,0.8
		c1.1,0.9,2.1,1.3,3.1,1.3c0.9,0,1.6-0.3,2.1-0.9c0.5-0.6,0.8-1.3,0.8-2.2c0-1.5-0.7-2.7-2.2-3.6c-1.5-0.9-3.2-1.4-5.1-1.4
		c-2.3,0-4.2,0.6-5.7,1.8c-1.8,1.4-2.7,3.3-2.7,5.7c0,3.2,1.7,5.4,5,6.5c2,0.7,3.2,1.2,3.4,1.3c0.4,0.3,0.6,0.6,0.6,0.9
		c0,0.7-0.3,1-1,1c-0.4,0-1.2-0.5-2.4-1.4c-0.9-0.7-1.8-1.1-2.7-1.1C110.3,14.3,109.4,14.6,108.8,15.3"/>
	<path id="XMLID_4_" clip-path="url(#XMLID_44_)" fill="#FFFFFF" d="M98.5,14.1h2.7c2.2,0,3.3-0.9,3.3-2.7c0-0.9-0.3-1.5-0.9-2
		c-0.6-0.5-1.3-0.7-2.1-0.7h-2.9V7.2h3.7c1.2,0,2.2-0.3,2.9-0.9c0.8-0.6,1.2-1.6,1.2-2.8c0-1.1-0.5-2-1.4-2.7
		c-0.5-0.4-1.2-0.6-2-0.7c-0.2,0-0.9,0-2.1,0h-4.5c-1.2,0-2,0-2.4,0.1c-0.8,0.2-1.5,0.5-2,1.1c-0.5,0.5-0.8,1.1-0.9,1.8
		c-0.1,0.4-0.1,1.1-0.1,2.1v12.4c0,1.4,0.1,2.4,0.3,3c0.3,0.9,1,1.6,2,2c0.5,0.2,1.5,0.3,2.8,0.3h5.9c1.4,0,2.5-0.3,3.1-0.8
		c0.8-0.7,1.2-1.6,1.2-2.7c0-1.1-0.4-2-1.2-2.7c-0.7-0.6-1.7-0.9-3.1-0.9h-3.4V14.1z M79.2,15.9c-1.2,0-2.3-0.4-3.1-1.3
		c-0.9-0.9-1.3-1.9-1.3-3.1c0-1.2,0.4-2.2,1.3-3.1c0.8-0.9,1.8-1.3,3-1.3c0.8,0,1.5,0.2,2.4,0.6c1.4,0.7,2.3,1,2.7,1
		c1,0,1.9-0.4,2.7-1.1C87.6,6.8,88,6,88,4.9c0-1.4-0.8-2.6-2.4-3.6c-2-1.2-4.1-1.9-6.4-1.9c-1.8,0-3.6,0.4-5.3,1.3
		c-2,1-3.7,2.5-4.9,4.4c-1.2,1.9-1.8,4.1-1.8,6.3c0,1.8,0.4,3.5,1.2,5.1c0.8,1.6,1.8,3,3.2,4.1c2.2,1.8,4.8,2.8,7.7,2.8
		c2.4,0,4.7-0.7,6.7-2.1c1.7-1.1,2.5-2.4,2.6-3.8c0.1-1,0.1-2.1,0.1-3.4c0-1.7-0.4-2.9-1.3-3.6c-0.6-0.5-1.6-0.8-3-0.9
		c-0.3,0-1.4,0-3.3,0c-1.2,0-2,0.2-2.6,0.6c-0.7,0.5-1.1,1.2-1.1,2.1c0,0.5,0.1,1,0.4,1.4c0.5,0.9,1.4,1.3,2.8,1.3h1.1
		C80.9,15.7,80,15.9,79.2,15.9 M45.7,1.5C45.3,2,45,2.6,44.9,3.3c0,0.2-0.1,0.9-0.1,2v12.5c0,1.2,0.1,2.1,0.2,2.6
		c0.2,0.8,0.7,1.4,1.5,2c0.6,0.4,1.7,0.6,3.2,0.6h3.2c2.4,0,4.4-0.3,5.9-0.9c2.7-1.1,4.7-3,5.9-5.7c0.7-1.5,1.1-3.2,1.1-4.8
		c0-3.4-1.3-6.3-3.8-8.5c-2.2-1.9-4.9-2.9-8.3-2.9h-4.6C47.6,0.1,46.5,0.6,45.7,1.5 M24.1,1.4c-2,1.2-3.4,2.9-4.4,5.1
		c-0.7,1.6-1.1,3.2-1.1,4.8c0,2,0.4,3.9,1.3,5.6c1,2,2.5,3.6,4.4,4.8c1.9,1.2,4,1.8,6.3,1.8c2.3,0,4.4-0.6,6.3-1.7
		c1.8-1.1,3.2-2.6,4.2-4.4c1-1.8,1.6-3.8,1.6-5.9c0-1.9-0.4-3.6-1.3-5.3c-1-2-2.5-3.6-4.4-4.9c-1.9-1.2-4.1-1.8-6.4-1.8
		C28.2-0.5,26,0.1,24.1,1.4 M8.8,16.5c3.1,0,5.5-1.2,7.2-3.5c1-1.4,1.5-2.9,1.5-4.6c0-1.8-0.5-3.4-1.6-4.9s-2.5-2.4-4.2-2.9
		c-0.9-0.3-2.4-0.4-4.4-0.4H4.1c-1.3,0-2.3,0.4-3.1,1.1C0.4,2,0,3,0,4.5v13.3c0,1,0,1.6,0.1,1.9c0.1,0.6,0.3,1.2,0.6,1.7
		c0.7,1.1,1.8,1.7,3.1,1.7c1.2,0,2.1-0.4,2.8-1.3c0.6-0.8,0.9-1.8,0.9-3v-2.2H8.8z"/>
</g>
</svg>
