<?xml version="1.0" encoding="utf-8"?>
<!-- Generator: Adobe Illustrator 19.1.0, SVG Export Plug-In . SVG Version: 6.00 Build 0)  -->
<svg version="1.1" id="Layer_1" xmlns="http://www.w3.org/2000/svg" xmlns:xlink="http://www.w3.org/1999/xlink" x="0px" y="0px"
	 width="34px" height="22px" viewBox="-482 490 34 22" style="enable-background:new -482 490 34 22;" xml:space="preserve">
<style type="text/css">
	.st0{fill:#D6000B;}
</style>
<path id="XMLID_4_" class="st0" d="M-449.5,493h-31c-0.8,0-1.5-0.7-1.5-1.5s0.7-1.5,1.5-1.5h31c0.8,0,1.5,0.7,1.5,1.5
	S-448.7,493-449.5,493z"/>
<path id="XMLID_3_" class="st0" d="M-449.5,502.5h-31c-0.8,0-1.5-0.7-1.5-1.5s0.7-1.5,1.5-1.5h31c0.8,0,1.5,0.7,1.5,1.5
	S-448.7,502.5-449.5,502.5z"/>
<path id="XMLID_2_" class="st0" d="M-449.5,512h-31c-0.8,0-1.5-0.7-1.5-1.5s0.7-1.5,1.5-1.5h31c0.8,0,1.5,0.7,1.5,1.5
	S-448.7,512-449.5,512z"/>
</svg>
